# File created by Blade
# Date/Time:  Thu Jan 22 15:33:09 2015
#---------------------------------------------------------
:version 1.10
:name HOM
:units
  mass 1.0
  length 1.000000
  angle deg
:documentation
     Acclaim Skeleton File
:root
   axis xyz
   order TX TY TZ RX RY RZ
   position 0.000000 0.000000 0.000000
   orientation 0 0 0
:bonedata
   begin
      id 1
      name RightUpLeg_dum
      direction -1.000000 0.000000 0.000000
      length 3.693983
      axis 0.0 0.0 0.0 xyz
   end
   begin
      id 2
      name LeftUpLeg_dum
      direction 1.000000 0.000000 0.000000
      length 3.693983
      axis 0.0 0.0 0.0 xyz
   end
   begin
      id 3
      name Spine_dum
      direction 0.000000 1.000000 0.000000
      length 2.392956
      axis 0.0 0.0 0.0 xyz
   end
   begin
      id 4
      name RightUpLeg
      direction 0.000000 -1.000000 0.000000
      length 15.795667
      axis 0.0 0.0 0.0 xyz
      dof rx ry rz
   end
   begin
      id 5
      name RightLeg
      direction 0.000000 -1.000000 0.000000
      length 14.766989
      axis 0.0 0.0 0.0 xyz
      dof rx ry rz
   end
   begin
      id 6
      name RightFoot
      direction 0.000000 -0.258819 0.965926
      length 4.962790
      axis 15.0 0.0 0.0 xyz
      dof rx ry rz
   end
   begin
      id 7
      name RightToeBase
      direction 0.000000 0.000000 1.000000
      length 2.952750
      axis 0.0 0.0 0.0 xyz
      dof rx ry rz
   end
   begin
      id 8
      name LeftUpLeg
      direction 0.000000 -1.000000 0.000000
      length 15.795667
      axis 0.0 0.0 0.0 xyz
      dof rx ry rz
   end
   begin
      id 9
      name LeftLeg
      direction 0.000000 -1.000000 0.000000
      length 14.766989
      axis 0.0 0.0 0.0 xyz
      dof rx ry rz
   end
   begin
      id 10
      name LeftFoot
      direction 0.000000 -0.258819 0.965926
      length 4.962790
      axis 15.0 0.0 0.0 xyz
      dof rx ry rz
   end
   begin
      id 11
      name LeftToeBase
      direction 0.000000 0.000000 1.000000
      length 2.952750
      axis 0.0 0.0 0.0 xyz
      dof rx ry rz
   end
   begin
      id 12
      name Spine
      direction 0.000000 1.000000 0.000000
      length 0.000000
      axis 0.0 0.0 0.0 xyz
      dof rx ry rz
   end
   begin
      id 13
      name Spine_dum1
      direction 0.000000 1.000000 0.000000
      length 13.207411
      axis 0.0 0.0 0.0 xyz
   end
   begin
      id 14
      name Spine_dum2
      direction 0.000000 1.000000 0.000000
      length 13.207411
      axis 0.0 0.0 0.0 xyz
   end
   begin
      id 15
      name Spine_dum3
      direction 0.000000 1.000000 0.000000
      length 19.250100
      axis 0.0 0.0 0.0 xyz
   end
   begin
      id 16
      name RightShoulder
      direction -1.000000 0.000000 0.000000
      length 8.140465
      axis 0.0 0.0 90.0 xyz
      dof rx ry rz
   end
   begin
      id 17
      name RightArm
      direction -1.000000 0.000000 0.000000
      length 10.649840
      axis 0.0 0.0 90.0 xyz
      dof rx ry rz
   end
   begin
      id 18
      name RightForeArm
      direction -1.000000 0.000000 0.000000
      length 8.304624
      axis 0.0 0.0 90.0 xyz
      dof ry rz rx
   end
   begin
      id 19
      name RightHand
      direction -1.000000 0.000000 0.000000
      length 0.000000
      axis 0.0 0.0 90.0 xyz
      dof rx ry rz
   end
   begin
      id 20
      name RightHand_dum1
      direction -1.000000 0.000000 0.000000
      length 3.937000
      axis 0.0 0.0 90.0 xyz
   end
   begin
      id 21
      name RightHand_dum2
      direction 0.000000 0.000000 0.000000
      length 0.000000
      axis 0.0 0.0 90.0 xyz
   end
   begin
      id 22
      name RightHandThumb1
      direction 0.000000 0.000000 1.000000
      length 3.937000
      axis 0.0 0.0 90.0 xyz
      dof rx rz ry
   end
   begin
      id 23
      name LeftShoulder
      direction 1.000000 0.000000 0.000000
      length 8.140465
      axis 0.0 0.0 -90.0 xyz
      dof rx ry rz
   end
   begin
      id 24
      name LeftArm
      direction 1.000000 0.000000 0.000000
      length 10.649840
      axis 0.0 0.0 -90.0 xyz
      dof rx ry rz
   end
   begin
      id 25
      name LeftForeArm
      direction 1.000000 0.000000 0.000000
      length 8.304624
      axis 0.0 0.0 -90.0 xyz
      dof ry rz rx
   end
   begin
      id 26
      name LeftHand
      direction 1.000000 0.000000 0.000000
      length 0.000000
      axis 0.0 0.0 -90.0 xyz
      dof rx ry rz
   end
   begin
      id 27
      name LeftHand_dum1
      direction 1.000000 0.000000 0.000000
      length 3.937000
      axis 0.0 0.0 -90.0 xyz
   end
   begin
      id 28
      name LeftHand_dum2
      direction 0.000000 0.000000 0.000000
      length 0.000000
      axis 0.0 0.0 -90.0 xyz
   end
   begin
      id 29
      name LeftHandThumb1
      direction 0.000000 0.000000 1.000000
      length 3.937000
      axis 0.0 0.0 -90.0 xyz
      dof rx rz ry
   end
   begin
      id 30
      name Head
      direction 0.000000 1.000000 0.000000
      length 4.527550
      axis 0.0 0.0 0.0 xyz
      dof rx ry rz
   end
:hierarchy
   begin
      root RightUpLeg_dum LeftUpLeg_dum Spine_dum
      RightUpLeg_dum RightUpLeg
      LeftUpLeg_dum LeftUpLeg
      Spine_dum Spine
      RightUpLeg RightLeg
      RightLeg RightFoot
      RightFoot RightToeBase
      LeftUpLeg LeftLeg
      LeftLeg LeftFoot
      LeftFoot LeftToeBase
      Spine Spine_dum1 Spine_dum2 Spine_dum3
      Spine_dum1 RightShoulder
      Spine_dum2 LeftShoulder
      Spine_dum3 Head
      RightShoulder RightArm
      RightArm RightForeArm
      RightForeArm RightHand
      RightHand RightHand_dum1 RightHand_dum2
      RightHand_dum2 RightHandThumb1
      LeftShoulder LeftArm
      LeftArm LeftForeArm
      LeftForeArm LeftHand
      LeftHand LeftHand_dum1 LeftHand_dum2
      LeftHand_dum2 LeftHandThumb1
   end

# File created by Blade
# Date/Time:  Thu Jan 22 15:33:01 2015
# Frame Rate: 120.000 fps
#------------------------------------------------------
:FULLY-SPECIFIED
:DEGREES
1144
root 10.604536 18.524035 6.102087 211.431196 -88.161098 -461.320866
RightUpLeg -86.729533 -7.700919 -1.845693
RightLeg 61.726575 -0.000000 -0.000000
RightFoot 51.394957 -0.489421 9.006504
RightToeBase 52.148336 -0.000000 -0.000000
LeftUpLeg -87.286052 10.774897 13.474826
LeftLeg 64.883077 -0.000000 -0.000000
LeftFoot 44.565641 -14.153157 -14.931399
LeftToeBase 49.678834 -0.000000 -0.000000
Spine 82.037306 2.551231 6.357378
RightShoulder -171.610599 39.645614 165.579866
RightArm 145.632589 42.743311 87.136104
RightForeArm 51.864565 -0.000000 112.368788
RightHand 4.660113 -0.000000 10.522964
RightHandThumb1 -24.326973 -0.000000 -32.862282
LeftShoulder -13.966575 50.833196 19.883540
LeftArm 13.908415 53.627124 -52.661029
LeftForeArm -20.992358 -0.000000 112.366514
LeftHand -22.195406 -0.000000 -3.172104
LeftHandThumb1 -26.253704 0.000000 33.147579
Head 98.119838 6.836920 -34.056707
1145
root 10.636591 18.525350 6.106649 211.384451 -88.111872 -461.545179
RightUpLeg -86.528307 -7.647326 -1.985546
RightLeg 61.776152 -0.000000 -0.000000
RightFoot 51.404457 -0.443231 8.936110
RightToeBase 52.126158 -0.000000 -0.000000
LeftUpLeg -87.069007 10.734809 13.672782
LeftLeg 65.019378 -0.000000 -0.000000
LeftFoot 44.539230 -14.166431 -15.134090
LeftToeBase 50.181261 -0.000000 -0.000000
Spine 82.220768 2.552897 6.332910
RightShoulder -171.538999 40.115897 165.554204
RightArm 146.317188 42.835871 87.567199
RightForeArm 51.850850 -0.000000 112.360172
RightHand 4.706428 0.000000 10.644686
RightHandThumb1 -24.326973 -0.000000 -32.862282
LeftShoulder -14.055850 50.828115 19.898237
LeftArm 14.139427 53.556066 -52.414882
LeftForeArm -21.328551 -0.000000 112.235720
LeftHand -21.955843 -0.000000 -3.528720
LeftHandThumb1 -26.253704 0.000000 33.147579
Head 98.142475 6.863478 -34.091407
1146
root 10.665480 18.521492 6.113685 211.236401 -88.109771 -461.895225
RightUpLeg -86.097079 -7.635515 -2.127743
RightLeg 61.835938 -0.000000 -0.000000
RightFoot 51.381420 -0.401320 8.881082
RightToeBase 52.144979 -0.000000 -0.000000
LeftUpLeg -86.637619 10.582266 13.926720
LeftLeg 65.152176 -0.000000 -0.000000
LeftFoot 44.536433 -14.149202 -15.414784
LeftToeBase 50.196158 -0.000000 -0.000000
Spine 82.636424 2.481261 6.348625
RightShoulder -171.500481 40.408193 165.458066
RightArm 146.758280 42.914833 87.816228
RightForeArm 51.853546 -0.000000 112.357261
RightHand 4.696143 -0.000000 10.662021
RightHandThumb1 -24.326973 -0.000000 -32.862282
LeftShoulder -14.131927 50.775750 19.962727
LeftArm 14.343923 53.627977 -52.211406
LeftForeArm -21.507431 0.000000 112.152874
LeftHand -21.758636 0.000000 -3.657812
LeftHandThumb1 -26.253704 0.000000 33.147579
Head 98.121195 6.859047 -34.156489
1147
root 10.700708 18.518090 6.117691 209.462542 -88.081400 -460.483595
RightUpLeg -85.827715 -7.558594 -2.224036
RightLeg 61.907889 -0.000000 -0.000000
RightFoot 51.372878 -0.274974 8.747330
RightToeBase 52.045298 -0.000000 -0.000000
LeftUpLeg -86.374699 10.544060 14.161043
LeftLeg 65.337007 -0.000000 -0.000000
LeftFoot 44.566954 -14.256584 -15.668905
LeftToeBase 49.961905 -0.000000 -0.000000
Spine 82.906477 2.478336 6.372890
RightShoulder -171.474722 40.613860 165.399240
RightArm 147.065924 42.947380 88.012191
RightForeArm 51.798382 -0.000000 112.347900
RightHand 4.717862 -0.000000 10.635986
RightHandThumb1 -24.326973 -0.000000 -32.862282
LeftShoulder -14.197144 50.889590 19.887852
LeftArm 14.449842 53.569258 -52.080470
LeftForeArm -21.619347 -0.000000 112.121831
LeftHand -21.608170 -0.000000 -3.724192
LeftHandThumb1 -26.253704 0.000000 33.147579
Head 98.141615 6.921731 -34.221406
